<svg version="1.1" xmlns="http://www.w3.org/2000/svg" width="1024" height="1024" viewBox="288 90 490 390">
	<path fill="#8aad90" opacity="1.000000" stroke="none"
		d="
	M539.994080,308.333008
		C537.515747,309.939972 535.426880,308.725464 533.375549,308.323547
		C517.638611,305.239929 503.887024,298.178802 491.851166,287.612000
		C489.419769,285.477417 488.738281,283.427917 489.656891,280.211975
		C495.654266,259.216156 492.872833,239.353149 481.277161,220.833130
		C479.757812,218.406540 479.653748,216.625473 481.815033,214.767242
		C484.233093,212.688309 483.971283,210.520157 482.049683,208.256302
		C480.756378,206.732620 479.590942,205.098755 478.272858,203.598007
		C466.328735,189.998215 465.553528,174.540054 470.687195,158.106369
		C471.385742,155.870148 472.136200,153.320694 475.016907,153.305222
		C477.685852,153.290878 478.390808,155.785461 479.079803,157.786453
		C483.372437,170.253540 491.640381,178.547760 504.058563,183.224731
		C513.333191,186.717743 519.447144,194.071075 524.326477,202.478699
		C525.222046,204.021866 525.692810,205.928604 528.072815,206.921204
		C529.916138,202.110748 528.183044,197.848602 526.368530,193.725357
		C523.878601,188.067490 523.943787,187.666885 530.005432,186.170959
		C536.366699,184.601089 542.852112,184.442459 549.366150,184.566116
		C557.256409,184.715881 557.806335,184.118500 555.584106,176.270203
		C552.895081,166.773026 554.223572,157.810791 558.541443,149.158356
		C559.561707,147.113922 560.659912,144.534576 563.436401,144.803268
		C566.119751,145.062958 566.281555,147.871582 566.765991,149.848511
		C569.076172,159.275116 574.383911,166.203278 582.793152,171.154266
		C593.513306,177.465866 600.176880,187.004959 602.942322,199.130798
		C603.715637,202.521790 605.170471,205.303757 607.662842,207.704636
		C618.855347,218.486374 623.779358,232.078857 624.106934,247.231033
		C624.368530,259.331909 627.818665,269.804871 636.418152,278.407593
		C647.030762,289.024139 647.597046,301.443298 642.286743,314.437195
		C633.599854,335.693573 616.744202,346.622742 594.700439,350.148041
		C590.288879,350.853516 589.516541,352.363800 590.623596,356.324677
		C592.887329,364.424103 593.652222,365.056549 602.233459,363.297791
		C627.869629,358.043457 645.179260,342.396851 656.509705,319.457916
		C660.506653,311.366119 663.128540,302.742157 665.302002,294.005829
		C666.094055,290.822144 667.734436,289.632233 670.988159,289.945312
		C696.868286,292.435089 719.697571,302.018311 738.856750,319.654022
		C756.630798,336.014740 767.440125,356.670563 774.378174,379.535004
		C774.843628,381.068726 775.642029,382.684326 774.333740,384.651733
		C769.824158,384.673889 765.481689,382.940582 761.038208,381.893799
		C746.982056,378.582397 732.848572,376.773834 718.487183,379.567139
		C696.888855,383.767944 681.530762,396.248322 671.228271,415.405151
		C666.769836,423.695282 668.586853,422.555420 659.600891,420.255157
		C634.217834,413.757507 612.255859,420.565155 593.045349,437.724884
		C591.680054,438.944519 590.324097,440.176636 588.915222,441.344330
		C588.558228,441.640167 588.014038,441.710144 587.543335,441.888641
		C585.812134,440.765961 586.596680,439.097168 586.792358,437.788757
		C590.388916,413.734161 585.636475,390.734314 578.186646,368.047943
		C576.733154,363.621887 575.441528,359.136810 574.252319,354.632202
		C573.626892,352.263367 572.447876,350.892395 569.935669,350.518768
		C563.354980,349.540070 556.816956,348.250183 550.221069,347.402740
		C536.587830,345.651276 529.818359,351.720490 528.250732,366.093140
		C526.806641,379.332611 527.736755,392.697601 525.378723,405.904327
		C522.102905,424.251495 515.092224,440.633270 502.165192,454.256470
		C501.137054,455.340027 499.968994,456.293579 498.841278,457.279358
		C496.072815,459.699463 493.840576,459.595490 491.317078,456.528473
		C483.465912,446.986298 474.895844,438.178162 464.736633,430.968475
		C446.374725,417.937469 426.340393,414.799133 404.892944,420.815674
		C399.975830,422.195068 397.707703,421.559814 395.361633,416.696777
		C382.204712,389.424591 353.574188,374.700134 323.501038,378.751923
		C314.064606,380.023346 304.803253,381.855408 295.599884,384.168915
		C294.356354,384.481537 293.073456,385.160339 291.686493,384.386963
		C290.303009,382.905884 291.067657,381.249695 291.541809,379.719604
		C301.111816,348.836426 317.149017,322.636810 345.769653,305.766602
		C361.060181,296.753723 377.694366,291.746521 395.334381,289.865601
		C399.906586,289.378082 400.457031,292.279114 401.266022,295.490417
		C405.172089,310.995270 411.105286,325.585693 421.442902,338.012787
		C430.275146,348.630249 441.133087,356.361237 454.581116,360.121307
		C458.675507,361.266083 462.890411,361.133301 466.983551,360.457764
		C474.391754,359.235077 478.830414,352.847046 479.669250,342.862793
		C480.638458,331.326324 478.571167,320.247772 474.001129,309.720245
		C472.483154,306.223450 472.636292,304.156067 475.598389,301.594849
		C483.702942,294.587036 483.565094,294.482422 492.303070,300.785645
		C504.984100,309.933228 519.182190,315.321869 534.592102,317.617371
		C536.261047,317.865997 537.999512,317.865082 539.048462,319.421753
		C543.823669,326.508545 551.449768,325.022797 558.151184,325.249237
		C562.413452,325.393311 565.293762,321.810791 566.316589,317.577576
		C567.282837,313.578888 565.471252,310.392059 562.358948,308.000122
		C557.194946,304.031372 545.326172,304.150085 539.994080,308.333008
	z"/>
	<path fill="#8aad90" opacity="1.000000" stroke="none"
		d="
	M605.724670,155.261292
		C574.296875,110.579399 511.539398,103.936554 471.923279,141.298859
		C453.462372,158.709442 445.138367,180.999695 444.173035,206.201859
		C444.026825,210.019318 445.586548,211.118362 449.172150,211.055496
		C459.996002,210.865799 468.161346,216.001907 473.598663,224.959610
		C483.691772,241.587509 486.207275,259.564301 480.789673,278.258423
		C477.529388,289.508423 470.316833,297.702087 458.438782,300.261169
		C445.123535,303.129822 433.583038,298.959351 424.553986,289.021790
		C413.490570,276.845123 405.678223,247.856583 419.046661,227.784088
		C421.209167,224.537109 421.739044,221.159988 421.760132,217.397110
		C421.884705,195.194977 424.686890,173.497284 435.477814,153.626862
		C452.226105,122.786575 477.955688,104.321182 512.644958,98.633179
		C538.950256,94.319893 564.110168,97.607201 587.486511,110.983833
		C615.468445,126.995903 631.868835,151.520966 639.154053,182.498047
		C640.979736,190.261093 642.531799,198.127029 642.304260,206.184692
		C642.219910,209.172913 644.039612,211.070984 645.773010,213.117737
		C658.385925,228.010681 660.489990,253.725449 650.364441,268.799652
		C646.115234,275.125732 644.894592,275.130127 639.669434,269.633698
		C634.165649,263.844177 633.251648,256.542358 632.960571,249.221771
		C632.264954,231.726074 627.108643,216.212692 614.244751,203.790146
		C613.807312,203.367752 613.624512,202.681763 613.226013,201.937515
		C615.257385,199.851471 618.078796,200.772903 620.906128,199.416519
		C620.522095,183.366989 614.567322,169.028992 605.724670,155.261292
	z"/>
	<path fill="#8aad90" opacity="1.000000" stroke="none"
		d="
	M728.265991,161.000092
		C728.267212,205.565445 728.267212,249.630798 728.267212,294.465149
		C721.908875,292.794464 717.602844,289.015503 712.421265,287.549133
		C706.361450,285.834198 704.755798,282.425659 704.442505,276.047180
		C701.883667,223.947861 681.391357,180.526505 640.473206,147.417404
		C636.817688,144.459579 633.573059,141.300613 630.814697,137.448792
		C617.088745,118.281975 599.456604,104.029060 577.277100,95.640976
		C576.345154,95.288528 575.443481,94.852295 574.541687,94.425629
		C574.098022,94.215767 573.686279,93.938446 573.339905,93.737854
		C574.578369,91.316452 576.442383,92.050880 577.947571,92.049957
		C615.265137,92.027000 652.583252,91.944130 689.900146,92.106537
		C712.902283,92.206650 728.250183,107.947136 728.279968,131.012268
		C728.292603,140.841522 728.270874,150.670822 728.265991,161.000092
	z"/>
	<path fill="#8aad90" opacity="1.000000" stroke="none"
		d="
	M473.998230,92.024628
		C480.066772,92.023277 485.635925,92.023277 491.404236,92.023277
		C490.963623,94.944717 489.150635,94.851387 487.920044,95.335533
		C464.577637,104.518890 445.727417,119.218056 432.210144,140.509613
		C428.625732,146.155579 422.634277,149.189789 417.855469,153.534103
		C387.284210,181.325775 369.500702,215.811523 363.277710,256.454071
		C362.067993,264.354828 361.315308,272.319427 361.360748,280.319794
		C361.377197,283.212006 360.455383,284.984955 357.652100,285.995392
		C351.136078,288.344116 345.081451,291.776855 339.014526,294.942963
		C337.082855,292.428589 337.723907,290.190430 337.722687,288.117340
		C337.692047,236.119156 337.708954,184.120926 337.715546,132.122711
		C337.718658,107.327171 352.630127,92.208961 377.502625,92.107903
		C409.500946,91.977898 441.500061,92.044212 473.998230,92.024628
	z"/>
	<path fill="#8aad90" opacity="1.000000" stroke="none"
		d="
	M728.273315,414.000122
		C728.268677,420.492462 728.268250,426.484833 728.258057,432.477234
		C728.219788,454.944427 713.605835,470.587158 691.174133,470.864502
		C655.890808,471.300812 620.598755,471.036865 585.310425,471.057709
		C584.002991,471.058472 582.647156,471.131744 581.287048,470.032562
		C581.377930,469.490875 581.278076,468.731659 581.608765,468.310638
		C592.696411,454.195709 604.676819,441.114380 621.917480,434.298187
		C634.186157,429.447662 646.593506,429.641449 659.071411,433.434448
		C660.503113,433.869629 661.913208,434.375610 663.335388,434.842407
		C673.720886,438.251282 673.887512,438.331238 678.774597,428.224426
		C684.981445,415.388397 692.624329,403.938477 705.810303,397.219971
		C711.209839,394.468842 716.936707,392.845978 722.864563,391.823029
		C726.555725,391.186066 728.500061,392.325562 728.323242,396.524170
		C728.085388,402.173553 728.269897,407.840668 728.273315,414.000122
	z"/>
	<path fill="#8aad90" opacity="1.000000" stroke="none"
	d="
M464.999481,471.057953
	C435.170654,471.036652 405.840424,471.171967 376.513092,470.938690
	C355.844421,470.774292 341.510284,459.285248 338.216125,440.015930
	C337.106934,433.527649 337.761261,426.728943 337.708740,420.071320
	C337.648224,412.406250 337.668884,404.740143 337.708984,397.074799
	C337.736694,391.782837 338.636871,391.027985 343.978119,391.980591
	C361.716614,395.144165 374.793945,404.768646 383.315063,420.601166
	C385.682800,425.000519 388.000488,429.431641 390.176117,433.928009
	C391.869598,437.427856 394.089569,438.253937 397.795013,436.755676
	C406.150635,433.377228 414.702271,430.821838 423.895538,430.676849
	C443.816498,430.362671 458.775024,440.258209 471.982391,453.716370
	C476.720795,458.544678 481.350494,463.557343 485.806519,471.057037
	C478.212708,471.057037 471.856018,471.057037 464.999481,471.057953
z"/>
</svg>
